<?xml version="1.0" standalone="no"?>
<!DOCTYPE svg PUBLIC "-//W3C//DTD SVG 20010904//EN"
 "http://www.w3.org/TR/2001/REC-SVG-20010904/DTD/svg10.dtd">
<svg version="1.0" xmlns="http://www.w3.org/2000/svg"
 width="400.000000pt" height="400.000000pt" viewBox="0 0 400.000000 400.000000"
 preserveAspectRatio="xMidYMid meet">
<metadata>
Created by potrace 1.14, written by Peter Selinger 2001-2017
</metadata>
<g transform="translate(0.000000,400.000000) scale(0.100000,-0.100000)"
fill="#000000" stroke="none">
<path d="M507 3413 c-4 -3 -7 -249 -7 -545 l0 -538 26 -10 c14 -6 83 -10 153
-10 l128 0 7 38 c3 20 6 91 6 157 l0 121 -30 17 c-31 19 -56 57 -71 111 -10
34 9 526 21 539 7 8 11 -40 26 -301 11 -179 27 -139 39 96 6 110 13 203 16
207 8 8 17 -86 25 -278 6 -132 13 -173 27 -150 3 5 10 94 17 198 6 105 14 201
18 215 9 37 19 -87 21 -252 1 -85 5 -139 12 -143 6 -4 12 -5 14 -4 2 2 8 74
15 159 24 339 34 340 44 3 8 -298 3 -335 -55 -387 l-39 -36 0 -150 0 -150 49
0 c64 0 162 31 207 65 95 72 114 153 114 487 0 256 -7 322 -42 393 -39 78
-102 122 -206 144 -57 12 -524 16 -535 4z"/>
<path d="M1482 3408 c-15 -15 -17 -1054 -2 -1078 12 -19 200 -27 243 -11 l27
11 0 180 c0 106 4 189 10 201 10 17 23 19 165 19 126 0 156 3 169 16 21 20 23
226 4 242 -7 5 -82 12 -167 14 -173 6 -181 9 -181 79 0 68 5 69 248 69 119 0
223 4 231 9 10 6 13 37 12 126 -1 65 -4 122 -7 127 -9 14 -738 10 -752 -4z"/>
<path d="M2326 3402 c-5 -16 51 -325 165 -912 16 -85 35 -159 40 -165 11 -12
215 -20 264 -11 20 4 36 15 42 29 5 12 29 111 53 220 24 109 47 194 51 190 5
-5 29 -100 54 -213 25 -113 50 -209 56 -215 13 -13 285 -13 298 0 14 14 212
1055 205 1077 -5 16 -18 18 -127 18 -67 0 -128 -4 -136 -9 -9 -6 -27 -109 -57
-332 -24 -178 -47 -335 -50 -349 -6 -24 -7 -24 -15 -5 -4 11 -31 166 -60 345
-28 179 -56 331 -61 338 -14 17 -202 17 -216 -1 -6 -7 -35 -164 -64 -350 -30
-186 -58 -337 -63 -337 -6 1 -31 155 -56 342 -32 234 -51 343 -60 349 -8 5
-69 9 -136 9 -109 0 -122 -2 -127 -18z"/>
<path d="M500 1920 l0 -290 45 0 45 0 0 102 c0 56 2 99 5 96 3 -2 17 -47 33
-99 l27 -94 48 -3 c51 -3 52 -2 38 43 -5 17 -21 68 -35 114 l-26 85 26 27 c23
24 27 38 31 107 9 160 -24 202 -159 202 l-78 0 0 -290z m135 115 c0 -75 -1
-80 -22 -83 -22 -3 -23 -1 -23 83 0 84 1 86 23 83 21 -3 22 -8 22 -83z"/>
<path d="M830 1920 l0 -290 100 0 100 0 0 44 0 45 -52 3 -53 3 0 85 0 85 48 3
47 3 0 44 0 44 -47 3 -48 3 -3 57 -3 57 53 3 53 3 3 48 3 47 -100 0 -101 0 0
-290z"/>
<path d="M1143 2191 c-32 -27 -43 -62 -43 -138 l0 -67 47 -40 c109 -95 104
-88 101 -163 -3 -60 -5 -68 -23 -68 -18 0 -20 8 -23 63 l-3 63 -32 -6 c-58
-13 -67 -22 -67 -71 0 -99 51 -151 139 -141 34 4 52 13 73 36 27 30 28 36 28
136 l0 104 -70 57 -70 56 0 54 c0 55 8 68 34 58 10 -4 16 -18 16 -41 l0 -35
37 7 c54 10 56 13 50 63 -7 66 -40 92 -115 92 -41 -1 -63 -6 -79 -19z"/>
<path d="M1400 2160 l0 -50 35 0 35 0 0 -240 0 -240 45 0 45 0 0 240 0 240 35
0 35 0 0 50 0 50 -115 0 -115 0 0 -50z"/>
<path d="M1730 2197 c0 -8 -13 -133 -30 -278 -16 -145 -30 -270 -30 -276 0 -9
15 -13 44 -13 47 0 56 11 56 73 0 25 3 28 28 25 25 -3 27 -7 30 -51 l3 -48 47
3 c43 3 47 5 45 28 -10 108 -54 510 -58 528 -5 20 -11 22 -70 22 -48 0 -65 -4
-65 -13z m82 -279 c5 -91 4 -98 -13 -98 -22 0 -23 24 -12 155 8 98 18 74 25
-57z"/>
<path d="M2000 1947 c0 -253 1 -264 21 -286 53 -56 145 -55 191 3 16 19 18 50
18 284 l0 262 -45 0 -45 0 -2 -247 c-3 -240 -4 -248 -23 -248 -19 0 -20 8 -23
248 l-2 247 -45 0 -45 0 0 -263z"/>
<path d="M2320 1921 l0 -291 50 0 50 0 0 98 c1 108 6 106 40 -15 l23 -83 49 0
c36 0 49 4 45 13 -2 6 -19 60 -37 119 l-33 107 27 31 c24 30 26 38 26 136 0
100 -1 105 -29 136 -28 32 -32 33 -120 36 l-91 4 0 -291z m148 134 c4 -78 -3
-105 -28 -105 -18 0 -20 7 -20 86 0 83 1 85 23 82 20 -3 22 -10 25 -63z"/>
<path d="M2700 2205 c0 -2 -13 -122 -30 -265 -16 -143 -30 -272 -30 -285 0
-23 4 -25 44 -25 l44 0 7 50 c6 44 10 50 31 50 21 0 24 -6 30 -50 l7 -50 43 0
c40 0 44 2 44 25 0 23 -44 428 -55 513 l-6 42 -65 0 c-35 0 -64 -2 -64 -5z
m81 -320 c2 -50 0 -61 -14 -63 -14 -3 -17 5 -17 45 0 26 3 80 7 118 l7 70 7
-55 c4 -30 9 -82 10 -115z"/>
<path d="M2977 2203 c-4 -3 -7 -134 -7 -290 l0 -283 51 0 51 0 -4 135 c-2 74
0 131 4 127 3 -4 24 -63 46 -132 39 -125 39 -125 72 -128 20 -2 36 2 41 10 10
15 12 528 3 552 -4 11 -19 16 -50 16 l-43 0 -3 -132 -3 -133 -39 120 c-21 66
-43 126 -48 133 -11 13 -60 17 -71 5z"/>
<path d="M3320 2160 l0 -50 35 0 35 0 0 -240 0 -240 45 0 45 0 0 240 0 240 35
0 35 0 0 50 0 50 -115 0 -115 0 0 -50z"/>
<path d="M891 1172 c-46 -185 -89 -352 -96 -370 -10 -32 -13 -27 -72 155 -34
103 -85 263 -115 355 -52 163 -54 168 -80 168 -16 0 -28 -3 -28 -6 0 -3 63
-198 140 -433 77 -235 140 -432 140 -439 0 -7 3 -12 8 -12 4 0 48 165 97 365
50 201 93 365 96 365 3 0 40 -136 83 -302 101 -396 113 -436 119 -418 3 8 58
177 122 375 64 198 127 393 140 433 l24 72 -28 0 c-26 0 -28 -4 -141 -355 -63
-195 -117 -351 -121 -347 -3 4 -29 99 -58 212 -30 113 -68 260 -87 328 -18 67
-36 138 -40 157 -3 19 -9 35 -13 35 -3 0 -44 -152 -90 -338z"/>
<path d="M1620 1070 l0 -410 255 0 255 0 0 25 0 25 -230 0 -230 0 0 180 0 180
175 0 175 0 0 25 0 25 -172 2 -173 3 -3 153 -3 152 216 0 215 0 0 25 0 25
-240 0 -240 0 0 -410z"/>
<path d="M2270 1070 l0 -410 255 0 255 0 0 25 0 25 -227 0 -228 0 0 178 0 177
175 5 c172 5 175 5 178 27 3 22 3 23 -173 25 l-176 3 -2 153 -2 152 213 0 212
0 0 25 0 25 -240 0 -240 0 0 -410z"/>
<path d="M2930 1070 l0 -410 25 0 25 0 0 163 0 163 43 36 43 35 204 -198 c189
-182 208 -198 241 -199 l36 0 -156 153 c-86 85 -185 181 -220 214 -39 36 -61
65 -57 71 4 7 102 94 219 195 l211 182 -37 3 c-35 3 -48 -6 -277 -207 -132
-116 -242 -211 -245 -211 -3 0 -5 95 -5 210 l0 210 -25 0 -25 0 0 -410z"/>
</g>
</svg>
